<mxfile host="app.diagrams.net" agent="Mozilla/5.0 (Windows NT 10.0; Win64; x64) AppleWebKit/537.36 (KHTML, like Gecko) Chrome/129.0.0.0 Safari/537.36" version="24.8.0">
  <diagram id="C5RBs43oDa-KdzZeNtuy" name="Page-1">
    <mxGraphModel dx="2261" dy="746" grid="1" gridSize="10" guides="1" tooltips="1" connect="1" arrows="1" fold="1" page="1" pageScale="1" pageWidth="827" pageHeight="1169" math="0" shadow="0">
      <root>
        <mxCell id="WIyWlLk6GJQsqaUBKTNV-0" />
        <mxCell id="WIyWlLk6GJQsqaUBKTNV-1" parent="WIyWlLk6GJQsqaUBKTNV-0" />
        <mxCell id="E-AYg8Bf5Lori_xvNv5e-0" value="&lt;font style=&quot;font-size: 18px;&quot; face=&quot;Verdana&quot;&gt;Port&lt;/font&gt;" style="rounded=1;whiteSpace=wrap;html=1;fontSize=12;glass=0;strokeWidth=2;shadow=0;strokeColor=#0034a0;fillColor=none;" parent="WIyWlLk6GJQsqaUBKTNV-1" vertex="1">
          <mxGeometry x="-360" y="280" width="160" height="50" as="geometry" />
        </mxCell>
        <mxCell id="E-AYg8Bf5Lori_xvNv5e-3" value="&lt;font face=&quot;Tahoma&quot; style=&quot;font-size: 18px;&quot;&gt;Engineering Supplies&lt;/font&gt;" style="shape=hexagon;perimeter=hexagonPerimeter2;whiteSpace=wrap;html=1;fixedSize=1;strokeWidth=2;strokeColor=#0034a0;" parent="WIyWlLk6GJQsqaUBKTNV-1" vertex="1">
          <mxGeometry x="-160" y="250.25" width="200" height="30" as="geometry" />
        </mxCell>
        <mxCell id="E-AYg8Bf5Lori_xvNv5e-8" value="&lt;font style=&quot;font-size: 18px;&quot; face=&quot;Verdana&quot;&gt;Quarry&lt;/font&gt;" style="rounded=1;whiteSpace=wrap;html=1;fontSize=12;glass=0;strokeWidth=2;shadow=0;strokeColor=#747474;" parent="WIyWlLk6GJQsqaUBKTNV-1" vertex="1">
          <mxGeometry x="80" y="200.5" width="160" height="50" as="geometry" />
        </mxCell>
        <mxCell id="E-AYg8Bf5Lori_xvNv5e-10" value="&lt;font style=&quot;font-size: 18px;&quot; face=&quot;Verdana&quot;&gt;Mineral Mine&lt;/font&gt;" style="rounded=1;whiteSpace=wrap;html=1;fontSize=12;glass=0;strokeWidth=2;shadow=0;strokeColor=#580410;" parent="WIyWlLk6GJQsqaUBKTNV-1" vertex="1">
          <mxGeometry x="80" y="280.5" width="160" height="50" as="geometry" />
        </mxCell>
        <mxCell id="E-AYg8Bf5Lori_xvNv5e-12" value="&lt;font face=&quot;Tahoma&quot; style=&quot;font-size: 18px;&quot;&gt;Salt&lt;/font&gt;" style="shape=hexagon;perimeter=hexagonPerimeter2;whiteSpace=wrap;html=1;fixedSize=1;strokeWidth=2;strokeColor=#ec9ca4;" parent="WIyWlLk6GJQsqaUBKTNV-1" vertex="1">
          <mxGeometry x="-160" y="340.5" width="200" height="30" as="geometry" />
        </mxCell>
        <mxCell id="E-AYg8Bf5Lori_xvNv5e-14" value="&lt;font face=&quot;Tahoma&quot; style=&quot;font-size: 18px;&quot;&gt;Sand&lt;/font&gt;" style="shape=hexagon;perimeter=hexagonPerimeter2;whiteSpace=wrap;html=1;fixedSize=1;strokeWidth=2;strokeColor=#b87818;" parent="WIyWlLk6GJQsqaUBKTNV-1" vertex="1">
          <mxGeometry x="280" y="170.5" width="200" height="30" as="geometry" />
        </mxCell>
        <mxCell id="E-AYg8Bf5Lori_xvNv5e-15" value="&lt;font face=&quot;Tahoma&quot; style=&quot;font-size: 18px;&quot;&gt;Potash&lt;/font&gt;" style="shape=hexagon;perimeter=hexagonPerimeter2;whiteSpace=wrap;html=1;fixedSize=1;strokeWidth=2;strokeColor=#d8d8d8;" parent="WIyWlLk6GJQsqaUBKTNV-1" vertex="1">
          <mxGeometry x="280" y="250.5" width="200" height="30" as="geometry" />
        </mxCell>
        <mxCell id="E-AYg8Bf5Lori_xvNv5e-16" value="&lt;font face=&quot;Tahoma&quot; style=&quot;font-size: 18px;&quot;&gt;Minerals&lt;/font&gt;" style="shape=hexagon;perimeter=hexagonPerimeter2;whiteSpace=wrap;html=1;fixedSize=1;strokeWidth=2;strokeColor=#580410;" parent="WIyWlLk6GJQsqaUBKTNV-1" vertex="1">
          <mxGeometry x="280" y="290.5" width="200" height="30" as="geometry" />
        </mxCell>
        <mxCell id="E-AYg8Bf5Lori_xvNv5e-26" value="" style="endArrow=none;html=1;rounded=0;strokeWidth=2;exitX=1;exitY=0.5;exitDx=0;exitDy=0;entryX=0;entryY=0.5;entryDx=0;entryDy=0;strokeColor=#580410;" parent="WIyWlLk6GJQsqaUBKTNV-1" source="E-AYg8Bf5Lori_xvNv5e-10" target="E-AYg8Bf5Lori_xvNv5e-16" edge="1">
          <mxGeometry width="50" height="50" relative="1" as="geometry">
            <mxPoint x="240" y="300.5" as="sourcePoint" />
            <mxPoint x="320" y="300.5" as="targetPoint" />
          </mxGeometry>
        </mxCell>
        <mxCell id="E-AYg8Bf5Lori_xvNv5e-28" value="" style="endArrow=none;html=1;rounded=0;strokeWidth=2;entryX=0;entryY=0.5;entryDx=0;entryDy=0;strokeColor=#0034a0;" parent="WIyWlLk6GJQsqaUBKTNV-1" target="E-AYg8Bf5Lori_xvNv5e-12" edge="1">
          <mxGeometry width="50" height="50" relative="1" as="geometry">
            <mxPoint x="-160" y="355.25" as="sourcePoint" />
            <mxPoint x="330" y="344.75" as="targetPoint" />
          </mxGeometry>
        </mxCell>
        <mxCell id="E-AYg8Bf5Lori_xvNv5e-29" value="&lt;font style=&quot;font-size: 18px;&quot; face=&quot;Verdana&quot;&gt;Chemical Plant&lt;br&gt;&lt;/font&gt;" style="rounded=1;whiteSpace=wrap;html=1;fontSize=12;glass=0;strokeWidth=2;shadow=0;strokeColor=#fc5000;" parent="WIyWlLk6GJQsqaUBKTNV-1" vertex="1">
          <mxGeometry x="520" y="280.5" width="160" height="50" as="geometry" />
        </mxCell>
        <mxCell id="E-AYg8Bf5Lori_xvNv5e-30" value="" style="endArrow=none;html=1;rounded=0;strokeWidth=2;exitX=1;exitY=0.5;exitDx=0;exitDy=0;entryX=0;entryY=0.5;entryDx=0;entryDy=0;strokeColor=#580410;" parent="WIyWlLk6GJQsqaUBKTNV-1" source="E-AYg8Bf5Lori_xvNv5e-16" target="E-AYg8Bf5Lori_xvNv5e-29" edge="1">
          <mxGeometry width="50" height="50" relative="1" as="geometry">
            <mxPoint x="500" y="305" as="sourcePoint" />
            <mxPoint x="580" y="305" as="targetPoint" />
          </mxGeometry>
        </mxCell>
        <mxCell id="E-AYg8Bf5Lori_xvNv5e-35" value="" style="endArrow=none;html=1;rounded=0;strokeWidth=2;exitX=1;exitY=0.5;exitDx=0;exitDy=0;strokeColor=#ec9ca4;" parent="WIyWlLk6GJQsqaUBKTNV-1" edge="1" source="E-AYg8Bf5Lori_xvNv5e-12">
          <mxGeometry width="50" height="50" relative="1" as="geometry">
            <mxPoint x="260" y="355.01" as="sourcePoint" />
            <mxPoint x="480" y="355" as="targetPoint" />
          </mxGeometry>
        </mxCell>
        <mxCell id="E-AYg8Bf5Lori_xvNv5e-36" value="&lt;font style=&quot;font-size: 18px;&quot; face=&quot;Verdana&quot;&gt;Glassworks&lt;/font&gt;" style="rounded=1;whiteSpace=wrap;html=1;fontSize=12;glass=0;strokeWidth=2;shadow=0;strokeColor=#d4d4e0;" parent="WIyWlLk6GJQsqaUBKTNV-1" vertex="1">
          <mxGeometry x="520" y="200.5" width="160" height="50" as="geometry" />
        </mxCell>
        <mxCell id="E-AYg8Bf5Lori_xvNv5e-37" value="&lt;font style=&quot;font-size: 18px;&quot; face=&quot;Verdana&quot;&gt;Homes&lt;/font&gt;" style="rounded=1;whiteSpace=wrap;html=1;fontSize=12;glass=0;strokeWidth=2;shadow=0;strokeColor=#9C6010;" parent="WIyWlLk6GJQsqaUBKTNV-1" vertex="1">
          <mxGeometry x="960" y="160.5" width="160" height="50" as="geometry" />
        </mxCell>
        <mxCell id="E-AYg8Bf5Lori_xvNv5e-39" value="&lt;font face=&quot;Tahoma&quot; style=&quot;font-size: 18px;&quot;&gt;Vials&lt;/font&gt;" style="shape=hexagon;perimeter=hexagonPerimeter2;whiteSpace=wrap;html=1;fixedSize=1;strokeWidth=2;strokeColor=#d4d4e0;" parent="WIyWlLk6GJQsqaUBKTNV-1" vertex="1">
          <mxGeometry x="720" y="250.5" width="200" height="30" as="geometry" />
        </mxCell>
        <mxCell id="E-AYg8Bf5Lori_xvNv5e-40" value="&lt;font face=&quot;Tahoma&quot; style=&quot;font-size: 18px;&quot;&gt;Goods&lt;/font&gt;" style="shape=hexagon;perimeter=hexagonPerimeter2;whiteSpace=wrap;html=1;fixedSize=1;strokeWidth=2;strokeColor=#9C6010;" parent="WIyWlLk6GJQsqaUBKTNV-1" vertex="1">
          <mxGeometry x="720" y="170.5" width="200" height="30" as="geometry" />
        </mxCell>
        <mxCell id="E-AYg8Bf5Lori_xvNv5e-43" value="&lt;font face=&quot;Tahoma&quot; style=&quot;font-size: 18px;&quot;&gt;Chemicals&lt;/font&gt;" style="shape=hexagon;perimeter=hexagonPerimeter2;whiteSpace=wrap;html=1;fixedSize=1;strokeWidth=2;strokeColor=#fc5000;" parent="WIyWlLk6GJQsqaUBKTNV-1" vertex="1">
          <mxGeometry x="720" y="290.5" width="200" height="30" as="geometry" />
        </mxCell>
        <mxCell id="E-AYg8Bf5Lori_xvNv5e-44" value="&lt;font face=&quot;Tahoma&quot; style=&quot;font-size: 18px;&quot;&gt;Fertilizer&lt;/font&gt;" style="shape=hexagon;perimeter=hexagonPerimeter2;whiteSpace=wrap;html=1;fixedSize=1;strokeWidth=2;strokeColor=#808080;" parent="WIyWlLk6GJQsqaUBKTNV-1" vertex="1">
          <mxGeometry x="720" y="330.5" width="200" height="30" as="geometry" />
        </mxCell>
        <mxCell id="E-AYg8Bf5Lori_xvNv5e-45" value="" style="endArrow=none;html=1;rounded=0;strokeWidth=2;exitX=1;exitY=0.5;exitDx=0;exitDy=0;entryX=0;entryY=0.5;entryDx=0;entryDy=0;strokeColor=#fc5000;" parent="WIyWlLk6GJQsqaUBKTNV-1" source="E-AYg8Bf5Lori_xvNv5e-29" target="E-AYg8Bf5Lori_xvNv5e-43" edge="1">
          <mxGeometry width="50" height="50" relative="1" as="geometry">
            <mxPoint x="690" y="319.5" as="sourcePoint" />
            <mxPoint x="770" y="319.5" as="targetPoint" />
          </mxGeometry>
        </mxCell>
        <mxCell id="E-AYg8Bf5Lori_xvNv5e-47" value="" style="endArrow=classic;html=1;rounded=0;strokeWidth=2;exitX=1;exitY=0.5;exitDx=0;exitDy=0;entryX=0;entryY=0.5;entryDx=0;entryDy=0;endFill=1;strokeColor=#9c6010;" parent="WIyWlLk6GJQsqaUBKTNV-1" source="E-AYg8Bf5Lori_xvNv5e-40" target="E-AYg8Bf5Lori_xvNv5e-37" edge="1">
          <mxGeometry width="50" height="50" relative="1" as="geometry">
            <mxPoint x="900" y="220.5" as="sourcePoint" />
            <mxPoint x="980" y="220.5" as="targetPoint" />
          </mxGeometry>
        </mxCell>
        <mxCell id="E-AYg8Bf5Lori_xvNv5e-48" value="&lt;font style=&quot;font-size: 18px;&quot; face=&quot;Verdana&quot;&gt;Soy Farm&lt;/font&gt;" style="rounded=1;whiteSpace=wrap;html=1;fontSize=12;glass=0;strokeWidth=2;shadow=0;strokeColor=#401408;" parent="WIyWlLk6GJQsqaUBKTNV-1" vertex="1">
          <mxGeometry x="-360" y="400" width="160" height="50" as="geometry" />
        </mxCell>
        <mxCell id="E-AYg8Bf5Lori_xvNv5e-50" value="&lt;font style=&quot;font-size: 18px;&quot; face=&quot;Verdana&quot;&gt;Yam Farm&lt;/font&gt;" style="rounded=1;whiteSpace=wrap;html=1;fontSize=12;glass=0;strokeWidth=2;shadow=0;strokeColor=#944838;" parent="WIyWlLk6GJQsqaUBKTNV-1" vertex="1">
          <mxGeometry x="-360" y="480" width="160" height="50" as="geometry" />
        </mxCell>
        <mxCell id="E-AYg8Bf5Lori_xvNv5e-51" value="&lt;font style=&quot;font-size: 18px;&quot; face=&quot;Verdana&quot;&gt;Corn Farm&lt;/font&gt;" style="rounded=1;whiteSpace=wrap;html=1;fontSize=12;glass=0;strokeWidth=2;shadow=0;strokeColor=#e8b810;" parent="WIyWlLk6GJQsqaUBKTNV-1" vertex="1">
          <mxGeometry x="-360" y="559.5" width="160" height="50" as="geometry" />
        </mxCell>
        <mxCell id="E-AYg8Bf5Lori_xvNv5e-55" value="" style="endArrow=none;html=1;rounded=1;strokeColor=#808080;strokeWidth=2;edgeStyle=entityRelationEdgeStyle;exitX=1;exitY=0.5;exitDx=0;exitDy=0;endFill=0;" parent="WIyWlLk6GJQsqaUBKTNV-1" source="E-AYg8Bf5Lori_xvNv5e-44" edge="1">
          <mxGeometry width="50" height="50" relative="1" as="geometry">
            <mxPoint x="1100" y="350" as="sourcePoint" />
            <mxPoint x="-370" y="425" as="targetPoint" />
            <Array as="points">
              <mxPoint x="160" y="510" />
              <mxPoint x="80" y="460" />
            </Array>
          </mxGeometry>
        </mxCell>
        <mxCell id="E-AYg8Bf5Lori_xvNv5e-56" value="" style="endArrow=classic;html=1;rounded=0;strokeWidth=2;endFill=1;entryX=0;entryY=0.5;entryDx=0;entryDy=0;strokeColor=#808080;" parent="WIyWlLk6GJQsqaUBKTNV-1" target="E-AYg8Bf5Lori_xvNv5e-48" edge="1">
          <mxGeometry width="50" height="50" relative="1" as="geometry">
            <mxPoint x="-380" y="425" as="sourcePoint" />
            <mxPoint x="-370" y="425" as="targetPoint" />
          </mxGeometry>
        </mxCell>
        <mxCell id="E-AYg8Bf5Lori_xvNv5e-64" value="" style="endArrow=none;html=1;rounded=1;strokeColor=#808080;strokeWidth=2;edgeStyle=orthogonalEdgeStyle;endFill=0;startArrow=classic;startFill=1;" parent="WIyWlLk6GJQsqaUBKTNV-1" edge="1">
          <mxGeometry width="50" height="50" relative="1" as="geometry">
            <mxPoint x="-360" y="505.25" as="sourcePoint" />
            <mxPoint x="-400" y="410.25" as="targetPoint" />
          </mxGeometry>
        </mxCell>
        <mxCell id="E-AYg8Bf5Lori_xvNv5e-65" value="" style="endArrow=none;html=1;rounded=1;strokeColor=#808080;strokeWidth=2;edgeStyle=orthogonalEdgeStyle;endFill=0;startArrow=classic;startFill=1;" parent="WIyWlLk6GJQsqaUBKTNV-1" edge="1">
          <mxGeometry width="50" height="50" relative="1" as="geometry">
            <mxPoint x="-360" y="584" as="sourcePoint" />
            <mxPoint x="-400" y="488" as="targetPoint" />
          </mxGeometry>
        </mxCell>
        <mxCell id="E-AYg8Bf5Lori_xvNv5e-68" value="&lt;font face=&quot;Tahoma&quot; style=&quot;font-size: 18px;&quot;&gt;Soy&lt;/font&gt;" style="shape=hexagon;perimeter=hexagonPerimeter2;whiteSpace=wrap;html=1;fixedSize=1;strokeWidth=2;strokeColor=#401408;" parent="WIyWlLk6GJQsqaUBKTNV-1" vertex="1">
          <mxGeometry x="-160" y="410.25" width="200" height="30" as="geometry" />
        </mxCell>
        <mxCell id="E-AYg8Bf5Lori_xvNv5e-69" value="&lt;font face=&quot;Tahoma&quot; style=&quot;font-size: 18px;&quot;&gt;Yams&lt;/font&gt;" style="shape=hexagon;perimeter=hexagonPerimeter2;whiteSpace=wrap;html=1;fixedSize=1;strokeWidth=2;strokeColor=#944838;" parent="WIyWlLk6GJQsqaUBKTNV-1" vertex="1">
          <mxGeometry x="-160" y="490.25" width="200" height="30" as="geometry" />
        </mxCell>
        <mxCell id="E-AYg8Bf5Lori_xvNv5e-70" value="&lt;font face=&quot;Tahoma&quot; style=&quot;font-size: 18px;&quot;&gt;Corn&lt;/font&gt;" style="shape=hexagon;perimeter=hexagonPerimeter2;whiteSpace=wrap;html=1;fixedSize=1;strokeWidth=2;strokeColor=#e8b810;" parent="WIyWlLk6GJQsqaUBKTNV-1" vertex="1">
          <mxGeometry x="-160" y="570.25" width="200" height="30" as="geometry" />
        </mxCell>
        <mxCell id="E-AYg8Bf5Lori_xvNv5e-71" value="&lt;font style=&quot;font-size: 18px;&quot; face=&quot;Verdana&quot;&gt;Distillery&lt;br&gt;&lt;/font&gt;" style="rounded=1;whiteSpace=wrap;html=1;fontSize=12;glass=0;strokeWidth=2;shadow=0;strokeColor=#CC8808;" parent="WIyWlLk6GJQsqaUBKTNV-1" vertex="1">
          <mxGeometry x="80" y="560" width="160" height="50" as="geometry" />
        </mxCell>
        <mxCell id="E-AYg8Bf5Lori_xvNv5e-72" value="&lt;font style=&quot;font-size: 18px;&quot; face=&quot;Verdana&quot;&gt;Processing Plant&lt;br&gt;&lt;/font&gt;" style="rounded=1;whiteSpace=wrap;html=1;fontSize=12;glass=0;strokeWidth=2;shadow=0;strokeColor=#5c9c34;" parent="WIyWlLk6GJQsqaUBKTNV-1" vertex="1">
          <mxGeometry x="80" y="640" width="160" height="50" as="geometry" />
        </mxCell>
        <mxCell id="E-AYg8Bf5Lori_xvNv5e-73" value="" style="endArrow=none;html=1;rounded=0;strokeWidth=2;exitX=1;exitY=0.5;exitDx=0;exitDy=0;entryX=0;entryY=0.5;entryDx=0;entryDy=0;strokeColor=#401408;" parent="WIyWlLk6GJQsqaUBKTNV-1" source="E-AYg8Bf5Lori_xvNv5e-48" target="E-AYg8Bf5Lori_xvNv5e-68" edge="1">
          <mxGeometry width="50" height="50" relative="1" as="geometry">
            <mxPoint x="-190" y="440" as="sourcePoint" />
            <mxPoint x="-110" y="440" as="targetPoint" />
          </mxGeometry>
        </mxCell>
        <mxCell id="E-AYg8Bf5Lori_xvNv5e-74" value="" style="endArrow=none;html=1;rounded=0;strokeWidth=2;exitX=1;exitY=0.5;exitDx=0;exitDy=0;entryX=0;entryY=0.5;entryDx=0;entryDy=0;strokeColor=#944838;" parent="WIyWlLk6GJQsqaUBKTNV-1" source="E-AYg8Bf5Lori_xvNv5e-50" target="E-AYg8Bf5Lori_xvNv5e-69" edge="1">
          <mxGeometry width="50" height="50" relative="1" as="geometry">
            <mxPoint x="-180" y="480" as="sourcePoint" />
            <mxPoint x="-100" y="480" as="targetPoint" />
          </mxGeometry>
        </mxCell>
        <mxCell id="E-AYg8Bf5Lori_xvNv5e-75" value="" style="endArrow=none;html=1;rounded=0;strokeWidth=2;exitX=1;exitY=0.5;exitDx=0;exitDy=0;entryX=0;entryY=0.5;entryDx=0;entryDy=0;strokeColor=#e8b810;" parent="WIyWlLk6GJQsqaUBKTNV-1" source="E-AYg8Bf5Lori_xvNv5e-51" target="E-AYg8Bf5Lori_xvNv5e-70" edge="1">
          <mxGeometry width="50" height="50" relative="1" as="geometry">
            <mxPoint x="-186" y="559.5" as="sourcePoint" />
            <mxPoint x="-106" y="559.5" as="targetPoint" />
          </mxGeometry>
        </mxCell>
        <mxCell id="E-AYg8Bf5Lori_xvNv5e-76" value="" style="endArrow=classic;html=1;rounded=1;strokeColor=#e8b810;strokeWidth=2;edgeStyle=entityRelationEdgeStyle;entryX=0;entryY=0.5;entryDx=0;entryDy=0;endFill=1;exitX=1;exitY=0.5;exitDx=0;exitDy=0;" parent="WIyWlLk6GJQsqaUBKTNV-1" source="E-AYg8Bf5Lori_xvNv5e-70" target="E-AYg8Bf5Lori_xvNv5e-71" edge="1">
          <mxGeometry width="50" height="50" relative="1" as="geometry">
            <mxPoint x="40" y="565.25" as="sourcePoint" />
            <mxPoint x="120" y="525.25" as="targetPoint" />
            <Array as="points">
              <mxPoint x="-280" y="750.25" />
            </Array>
          </mxGeometry>
        </mxCell>
        <mxCell id="E-AYg8Bf5Lori_xvNv5e-78" value="&lt;font face=&quot;Tahoma&quot; style=&quot;font-size: 18px;&quot;&gt;Alcohol&lt;/font&gt;" style="shape=hexagon;perimeter=hexagonPerimeter2;whiteSpace=wrap;html=1;fixedSize=1;strokeWidth=2;strokeColor=#cc8808;" parent="WIyWlLk6GJQsqaUBKTNV-1" vertex="1">
          <mxGeometry x="280" y="569.5" width="200" height="30" as="geometry" />
        </mxCell>
        <mxCell id="E-AYg8Bf5Lori_xvNv5e-79" value="" style="endArrow=none;html=1;rounded=0;strokeWidth=2;exitX=1;exitY=0.5;exitDx=0;exitDy=0;entryX=0;entryY=0.5;entryDx=0;entryDy=0;strokeColor=#CC8808;" parent="WIyWlLk6GJQsqaUBKTNV-1" source="E-AYg8Bf5Lori_xvNv5e-71" target="E-AYg8Bf5Lori_xvNv5e-78" edge="1">
          <mxGeometry width="50" height="50" relative="1" as="geometry">
            <mxPoint x="250" y="560" as="sourcePoint" />
            <mxPoint x="330" y="560" as="targetPoint" />
          </mxGeometry>
        </mxCell>
        <mxCell id="E-AYg8Bf5Lori_xvNv5e-80" value="&lt;font face=&quot;Tahoma&quot; style=&quot;font-size: 18px;&quot;&gt;Vegetable Oil&lt;/font&gt;" style="shape=hexagon;perimeter=hexagonPerimeter2;whiteSpace=wrap;html=1;fixedSize=1;strokeWidth=2;strokeColor=#5c9c34;" parent="WIyWlLk6GJQsqaUBKTNV-1" vertex="1">
          <mxGeometry x="280" y="649.5" width="200" height="30" as="geometry" />
        </mxCell>
        <mxCell id="E-AYg8Bf5Lori_xvNv5e-81" value="" style="endArrow=none;html=1;rounded=0;strokeWidth=2;exitX=1;exitY=0.5;exitDx=0;exitDy=0;entryX=0;entryY=0.5;entryDx=0;entryDy=0;strokeColor=#5c9c34;" parent="WIyWlLk6GJQsqaUBKTNV-1" source="E-AYg8Bf5Lori_xvNv5e-72" target="E-AYg8Bf5Lori_xvNv5e-80" edge="1">
          <mxGeometry width="50" height="50" relative="1" as="geometry">
            <mxPoint x="250" y="640" as="sourcePoint" />
            <mxPoint x="330" y="640" as="targetPoint" />
          </mxGeometry>
        </mxCell>
        <mxCell id="E-AYg8Bf5Lori_xvNv5e-82" value="&lt;font style=&quot;font-size: 18px;&quot; face=&quot;Verdana&quot;&gt;Biolab&lt;/font&gt;" style="rounded=1;whiteSpace=wrap;html=1;fontSize=12;glass=0;strokeWidth=2;shadow=0;strokeColor=#8484A4;" parent="WIyWlLk6GJQsqaUBKTNV-1" vertex="1">
          <mxGeometry x="520" y="480.5" width="160" height="50" as="geometry" />
        </mxCell>
        <mxCell id="E-AYg8Bf5Lori_xvNv5e-93" value="" style="endArrow=classic;html=1;rounded=0;strokeWidth=2;exitX=1;exitY=0.5;exitDx=0;exitDy=0;entryX=0;entryY=0.5;entryDx=0;entryDy=0;endFill=1;strokeColor=#944838;" parent="WIyWlLk6GJQsqaUBKTNV-1" source="E-AYg8Bf5Lori_xvNv5e-69" target="E-AYg8Bf5Lori_xvNv5e-82" edge="1">
          <mxGeometry width="50" height="50" relative="1" as="geometry">
            <mxPoint x="80" y="500.25" as="sourcePoint" />
            <mxPoint x="160" y="500.25" as="targetPoint" />
          </mxGeometry>
        </mxCell>
        <mxCell id="E-AYg8Bf5Lori_xvNv5e-95" value="" style="endArrow=none;html=1;rounded=0;strokeWidth=2;exitX=1;exitY=0.5;exitDx=0;exitDy=0;strokeColor=#401408;" parent="WIyWlLk6GJQsqaUBKTNV-1" edge="1">
          <mxGeometry width="50" height="50" relative="1" as="geometry">
            <mxPoint x="40" y="425.25" as="sourcePoint" />
            <mxPoint x="480" y="425" as="targetPoint" />
          </mxGeometry>
        </mxCell>
        <mxCell id="E-AYg8Bf5Lori_xvNv5e-96" value="&lt;font face=&quot;Tahoma&quot; style=&quot;font-size: 18px;&quot;&gt;Diosgenin&lt;/font&gt;" style="shape=hexagon;perimeter=hexagonPerimeter2;whiteSpace=wrap;html=1;fixedSize=1;strokeWidth=2;strokeColor=#8484A4;" parent="WIyWlLk6GJQsqaUBKTNV-1" vertex="1">
          <mxGeometry x="720" y="490.5" width="200" height="30" as="geometry" />
        </mxCell>
        <mxCell id="E-AYg8Bf5Lori_xvNv5e-97" value="" style="endArrow=none;html=1;rounded=0;strokeWidth=2;exitX=1;exitY=0.5;exitDx=0;exitDy=0;entryX=0;entryY=0.5;entryDx=0;entryDy=0;strokeColor=#8484A4;" parent="WIyWlLk6GJQsqaUBKTNV-1" source="E-AYg8Bf5Lori_xvNv5e-82" target="E-AYg8Bf5Lori_xvNv5e-96" edge="1">
          <mxGeometry width="50" height="50" relative="1" as="geometry">
            <mxPoint x="700" y="481.5" as="sourcePoint" />
            <mxPoint x="760" y="505.5" as="targetPoint" />
          </mxGeometry>
        </mxCell>
        <mxCell id="E-AYg8Bf5Lori_xvNv5e-98" value="&lt;font style=&quot;font-size: 18px;&quot; face=&quot;Verdana&quot;&gt;Pharmaceutical Plant (E/T)&lt;/font&gt;" style="rounded=1;whiteSpace=wrap;html=1;fontSize=12;glass=0;strokeWidth=2;shadow=0;strokeColor=#80C4FC;" parent="WIyWlLk6GJQsqaUBKTNV-1" vertex="1">
          <mxGeometry x="960" y="480.5" width="160" height="50" as="geometry" />
        </mxCell>
        <mxCell id="E-AYg8Bf5Lori_xvNv5e-99" value="" style="endArrow=classic;html=1;rounded=0;strokeWidth=2;exitX=1;exitY=0.5;exitDx=0;exitDy=0;entryX=0;entryY=0.5;entryDx=0;entryDy=0;endFill=1;strokeColor=#8484a4;" parent="WIyWlLk6GJQsqaUBKTNV-1" source="E-AYg8Bf5Lori_xvNv5e-96" target="E-AYg8Bf5Lori_xvNv5e-98" edge="1">
          <mxGeometry width="50" height="50" relative="1" as="geometry">
            <mxPoint x="920" y="489.5" as="sourcePoint" />
            <mxPoint x="1000" y="489.5" as="targetPoint" />
          </mxGeometry>
        </mxCell>
        <mxCell id="E-AYg8Bf5Lori_xvNv5e-100" value="&lt;font face=&quot;Tahoma&quot;&gt;&lt;span style=&quot;font-size: 18px;&quot;&gt;Raw Estr/Test&lt;/span&gt;&lt;/font&gt;" style="shape=hexagon;perimeter=hexagonPerimeter2;whiteSpace=wrap;html=1;fixedSize=1;strokeWidth=2;strokeColor=#80C4FC;" parent="WIyWlLk6GJQsqaUBKTNV-1" vertex="1">
          <mxGeometry x="1160" y="490.5" width="200" height="30" as="geometry" />
        </mxCell>
        <mxCell id="E-AYg8Bf5Lori_xvNv5e-101" value="" style="endArrow=none;html=1;rounded=0;strokeWidth=2;exitX=1;exitY=0.5;exitDx=0;exitDy=0;entryX=0;entryY=0.5;entryDx=0;entryDy=0;strokeColor=#80C4FC;" parent="WIyWlLk6GJQsqaUBKTNV-1" source="E-AYg8Bf5Lori_xvNv5e-98" target="E-AYg8Bf5Lori_xvNv5e-100" edge="1">
          <mxGeometry width="50" height="50" relative="1" as="geometry">
            <mxPoint x="1140" y="480.5" as="sourcePoint" />
            <mxPoint x="1220" y="480.5" as="targetPoint" />
          </mxGeometry>
        </mxCell>
        <mxCell id="E-AYg8Bf5Lori_xvNv5e-102" value="&lt;font style=&quot;font-size: 18px;&quot; face=&quot;Verdana&quot;&gt;Pharmacy&lt;/font&gt;" style="rounded=1;whiteSpace=wrap;html=1;fontSize=12;glass=0;strokeWidth=2;shadow=0;strokeColor=#3890E8;" parent="WIyWlLk6GJQsqaUBKTNV-1" vertex="1">
          <mxGeometry x="1400" y="480.5" width="160" height="50" as="geometry" />
        </mxCell>
        <mxCell id="E-AYg8Bf5Lori_xvNv5e-109" value="" style="endArrow=classic;html=1;rounded=0;strokeWidth=2;exitX=1;exitY=0.5;exitDx=0;exitDy=0;entryX=0;entryY=0.5;entryDx=0;entryDy=0;endFill=1;strokeColor=#80c4fc;" parent="WIyWlLk6GJQsqaUBKTNV-1" source="E-AYg8Bf5Lori_xvNv5e-100" target="E-AYg8Bf5Lori_xvNv5e-102" edge="1">
          <mxGeometry width="50" height="50" relative="1" as="geometry">
            <mxPoint x="1350" y="450.5" as="sourcePoint" />
            <mxPoint x="1430" y="450.5" as="targetPoint" />
          </mxGeometry>
        </mxCell>
        <mxCell id="E-AYg8Bf5Lori_xvNv5e-110" value="" style="endArrow=none;html=1;rounded=0;strokeWidth=2;exitX=1;exitY=0.317;exitDx=0;exitDy=0;exitPerimeter=0;strokeColor=#fc5000;" parent="WIyWlLk6GJQsqaUBKTNV-1" edge="1">
          <mxGeometry width="50" height="50" relative="1" as="geometry">
            <mxPoint x="920" y="304.7200000000001" as="sourcePoint" />
            <mxPoint x="1360" y="304.71" as="targetPoint" />
          </mxGeometry>
        </mxCell>
        <mxCell id="E-AYg8Bf5Lori_xvNv5e-111" value="" style="endArrow=none;html=1;rounded=0;strokeWidth=2;exitX=1;exitY=0.5;exitDx=0;exitDy=0;strokeColor=#5c9c34;" parent="WIyWlLk6GJQsqaUBKTNV-1" source="E-AYg8Bf5Lori_xvNv5e-80" edge="1">
          <mxGeometry width="50" height="50" relative="1" as="geometry">
            <mxPoint x="480" y="669.5" as="sourcePoint" />
            <mxPoint x="1800" y="665" as="targetPoint" />
          </mxGeometry>
        </mxCell>
        <mxCell id="E-AYg8Bf5Lori_xvNv5e-113" value="&lt;font face=&quot;Tahoma&quot; style=&quot;font-size: 18px;&quot;&gt;Estr/Test&lt;/font&gt;" style="shape=hexagon;perimeter=hexagonPerimeter2;whiteSpace=wrap;html=1;fixedSize=1;strokeWidth=2;strokeColor=#3890E8;" parent="WIyWlLk6GJQsqaUBKTNV-1" vertex="1">
          <mxGeometry x="1600" y="490.5" width="200" height="30" as="geometry" />
        </mxCell>
        <mxCell id="E-AYg8Bf5Lori_xvNv5e-114" value="" style="endArrow=none;html=1;rounded=0;strokeWidth=2;exitX=1;exitY=0.5;exitDx=0;exitDy=0;entryX=0;entryY=0.5;entryDx=0;entryDy=0;strokeColor=#3890E8;" parent="WIyWlLk6GJQsqaUBKTNV-1" source="E-AYg8Bf5Lori_xvNv5e-102" target="E-AYg8Bf5Lori_xvNv5e-113" edge="1">
          <mxGeometry width="50" height="50" relative="1" as="geometry">
            <mxPoint x="1570" y="450.5" as="sourcePoint" />
            <mxPoint x="1650" y="450.5" as="targetPoint" />
          </mxGeometry>
        </mxCell>
        <mxCell id="E-AYg8Bf5Lori_xvNv5e-115" value="&lt;font style=&quot;font-size: 18px;&quot; face=&quot;Verdana&quot;&gt;Gender Clinic&lt;/font&gt;" style="rounded=1;whiteSpace=wrap;html=1;fontSize=12;glass=0;strokeWidth=2;shadow=0;strokeColor=#fcbcc0;" parent="WIyWlLk6GJQsqaUBKTNV-1" vertex="1">
          <mxGeometry x="1840" y="480" width="160" height="50" as="geometry" />
        </mxCell>
        <mxCell id="E-AYg8Bf5Lori_xvNv5e-116" value="" style="endArrow=classic;html=1;rounded=0;strokeWidth=2;exitX=1;exitY=0.5;exitDx=0;exitDy=0;entryX=0;entryY=0.5;entryDx=0;entryDy=0;endFill=1;strokeColor=#3890e8;" parent="WIyWlLk6GJQsqaUBKTNV-1" source="E-AYg8Bf5Lori_xvNv5e-113" target="E-AYg8Bf5Lori_xvNv5e-115" edge="1">
          <mxGeometry width="50" height="50" relative="1" as="geometry">
            <mxPoint x="1760" y="505" as="sourcePoint" />
            <mxPoint x="1830" y="479" as="targetPoint" />
          </mxGeometry>
        </mxCell>
        <mxCell id="E-AYg8Bf5Lori_xvNv5e-118" value="" style="endArrow=none;html=1;rounded=0;strokeWidth=2;exitX=1;exitY=0.5;exitDx=0;exitDy=0;strokeColor=#d4d4e0;" parent="WIyWlLk6GJQsqaUBKTNV-1" source="E-AYg8Bf5Lori_xvNv5e-39" edge="1">
          <mxGeometry width="50" height="50" relative="1" as="geometry">
            <mxPoint x="920" y="270.5" as="sourcePoint" />
            <mxPoint x="1800" y="265" as="targetPoint" />
          </mxGeometry>
        </mxCell>
        <mxCell id="E-AYg8Bf5Lori_xvNv5e-124" value="" style="endArrow=none;html=1;rounded=1;strokeColor=#0034a0;strokeWidth=2;endFill=0;edgeStyle=elbowEdgeStyle;entryX=0;entryY=0.5;entryDx=0;entryDy=0;exitX=1;exitY=0.5;exitDx=0;exitDy=0;" parent="WIyWlLk6GJQsqaUBKTNV-1" source="E-AYg8Bf5Lori_xvNv5e-0" target="E-AYg8Bf5Lori_xvNv5e-3" edge="1">
          <mxGeometry width="50" height="50" relative="1" as="geometry">
            <mxPoint x="-170" y="300" as="sourcePoint" />
            <mxPoint x="-150" y="245.25" as="targetPoint" />
          </mxGeometry>
        </mxCell>
        <mxCell id="E-AYg8Bf5Lori_xvNv5e-125" value="" style="endArrow=none;html=1;rounded=1;strokeColor=#0034a0;strokeWidth=2;endFill=0;edgeStyle=elbowEdgeStyle;" parent="WIyWlLk6GJQsqaUBKTNV-1" edge="1">
          <mxGeometry width="50" height="50" relative="1" as="geometry">
            <mxPoint x="-200" y="305" as="sourcePoint" />
            <mxPoint x="-160" y="355.25" as="targetPoint" />
          </mxGeometry>
        </mxCell>
        <mxCell id="E-AYg8Bf5Lori_xvNv5e-126" value="" style="endArrow=classic;html=1;rounded=1;strokeColor=#0034a0;strokeWidth=2;endFill=1;edgeStyle=elbowEdgeStyle;exitX=1;exitY=0.5;exitDx=0;exitDy=0;entryX=0;entryY=0.5;entryDx=0;entryDy=0;" parent="WIyWlLk6GJQsqaUBKTNV-1" source="E-AYg8Bf5Lori_xvNv5e-3" target="E-AYg8Bf5Lori_xvNv5e-8" edge="1">
          <mxGeometry width="50" height="50" relative="1" as="geometry">
            <mxPoint x="40" y="260" as="sourcePoint" />
            <mxPoint x="80" y="220" as="targetPoint" />
            <Array as="points">
              <mxPoint x="60" y="230" />
            </Array>
          </mxGeometry>
        </mxCell>
        <mxCell id="E-AYg8Bf5Lori_xvNv5e-127" value="" style="endArrow=classic;html=1;rounded=1;strokeColor=#0034a0;strokeWidth=2;endFill=1;edgeStyle=elbowEdgeStyle;exitX=1;exitY=0.5;exitDx=0;exitDy=0;entryX=0;entryY=0.5;entryDx=0;entryDy=0;" parent="WIyWlLk6GJQsqaUBKTNV-1" source="E-AYg8Bf5Lori_xvNv5e-3" target="E-AYg8Bf5Lori_xvNv5e-10" edge="1">
          <mxGeometry width="50" height="50" relative="1" as="geometry">
            <mxPoint x="30" y="280" as="sourcePoint" />
            <mxPoint x="70" y="320" as="targetPoint" />
          </mxGeometry>
        </mxCell>
        <mxCell id="E-AYg8Bf5Lori_xvNv5e-128" value="" style="endArrow=classic;html=1;rounded=1;strokeColor=#e8b810;strokeWidth=2;endFill=1;edgeStyle=elbowEdgeStyle;exitX=1;exitY=0.5;exitDx=0;exitDy=0;entryX=0;entryY=0.5;entryDx=0;entryDy=0;" parent="WIyWlLk6GJQsqaUBKTNV-1" source="E-AYg8Bf5Lori_xvNv5e-70" target="E-AYg8Bf5Lori_xvNv5e-72" edge="1">
          <mxGeometry width="50" height="50" relative="1" as="geometry">
            <mxPoint x="40" y="610" as="sourcePoint" />
            <mxPoint x="80" y="650" as="targetPoint" />
          </mxGeometry>
        </mxCell>
        <mxCell id="E-AYg8Bf5Lori_xvNv5e-129" value="" style="endArrow=none;html=1;rounded=1;strokeColor=#747474;strokeWidth=2;endFill=0;edgeStyle=elbowEdgeStyle;exitX=1;exitY=0.5;exitDx=0;exitDy=0;entryX=0;entryY=0.5;entryDx=0;entryDy=0;" parent="WIyWlLk6GJQsqaUBKTNV-1" source="E-AYg8Bf5Lori_xvNv5e-8" target="E-AYg8Bf5Lori_xvNv5e-14" edge="1">
          <mxGeometry width="50" height="50" relative="1" as="geometry">
            <mxPoint x="240" y="230" as="sourcePoint" />
            <mxPoint x="280" y="190" as="targetPoint" />
          </mxGeometry>
        </mxCell>
        <mxCell id="E-AYg8Bf5Lori_xvNv5e-130" value="" style="endArrow=none;html=1;rounded=1;strokeColor=#747474;strokeWidth=2;endFill=0;edgeStyle=elbowEdgeStyle;entryX=0;entryY=0.5;entryDx=0;entryDy=0;" parent="WIyWlLk6GJQsqaUBKTNV-1" target="E-AYg8Bf5Lori_xvNv5e-15" edge="1">
          <mxGeometry width="50" height="50" relative="1" as="geometry">
            <mxPoint x="240" y="226" as="sourcePoint" />
            <mxPoint x="280" y="310" as="targetPoint" />
          </mxGeometry>
        </mxCell>
        <mxCell id="E-AYg8Bf5Lori_xvNv5e-134" value="" style="endArrow=classic;html=1;rounded=1;strokeColor=#b87818;strokeWidth=2;endFill=1;edgeStyle=elbowEdgeStyle;exitX=1;exitY=0.5;exitDx=0;exitDy=0;entryX=0;entryY=0.5;entryDx=0;entryDy=0;" parent="WIyWlLk6GJQsqaUBKTNV-1" source="E-AYg8Bf5Lori_xvNv5e-14" target="E-AYg8Bf5Lori_xvNv5e-36" edge="1">
          <mxGeometry width="50" height="50" relative="1" as="geometry">
            <mxPoint x="470" y="130.5" as="sourcePoint" />
            <mxPoint x="510" y="170.5" as="targetPoint" />
          </mxGeometry>
        </mxCell>
        <mxCell id="E-AYg8Bf5Lori_xvNv5e-135" value="" style="endArrow=classic;html=1;rounded=1;strokeColor=#401408;strokeWidth=2;endFill=1;edgeStyle=elbowEdgeStyle;entryX=0;entryY=0.5;entryDx=0;entryDy=0;" parent="WIyWlLk6GJQsqaUBKTNV-1" target="E-AYg8Bf5Lori_xvNv5e-82" edge="1">
          <mxGeometry width="50" height="50" relative="1" as="geometry">
            <mxPoint x="480" y="425" as="sourcePoint" />
            <mxPoint x="510" y="505" as="targetPoint" />
          </mxGeometry>
        </mxCell>
        <mxCell id="E-AYg8Bf5Lori_xvNv5e-136" value="" style="endArrow=classic;html=1;rounded=1;strokeColor=#cc8808;strokeWidth=2;endFill=1;edgeStyle=elbowEdgeStyle;exitX=1;exitY=0.5;exitDx=0;exitDy=0;entryX=0;entryY=0.5;entryDx=0;entryDy=0;" parent="WIyWlLk6GJQsqaUBKTNV-1" source="E-AYg8Bf5Lori_xvNv5e-78" target="E-AYg8Bf5Lori_xvNv5e-82" edge="1">
          <mxGeometry width="50" height="50" relative="1" as="geometry">
            <mxPoint x="480" y="585" as="sourcePoint" />
            <mxPoint x="520" y="545" as="targetPoint" />
          </mxGeometry>
        </mxCell>
        <mxCell id="E-AYg8Bf5Lori_xvNv5e-137" value="" style="endArrow=classic;html=1;rounded=1;strokeColor=#ec9ca4;strokeWidth=2;endFill=1;edgeStyle=elbowEdgeStyle;entryX=0;entryY=0.5;entryDx=0;entryDy=0;" parent="WIyWlLk6GJQsqaUBKTNV-1" target="E-AYg8Bf5Lori_xvNv5e-29" edge="1">
          <mxGeometry width="50" height="50" relative="1" as="geometry">
            <mxPoint x="480" y="355" as="sourcePoint" />
            <mxPoint x="520" y="301.5" as="targetPoint" />
          </mxGeometry>
        </mxCell>
        <mxCell id="E-AYg8Bf5Lori_xvNv5e-138" value="" style="endArrow=none;html=1;rounded=1;strokeColor=#d4d4e0;strokeWidth=2;endFill=0;edgeStyle=elbowEdgeStyle;exitX=1;exitY=0.5;exitDx=0;exitDy=0;entryX=0;entryY=0.5;entryDx=0;entryDy=0;" parent="WIyWlLk6GJQsqaUBKTNV-1" source="E-AYg8Bf5Lori_xvNv5e-36" target="E-AYg8Bf5Lori_xvNv5e-39" edge="1">
          <mxGeometry width="50" height="50" relative="1" as="geometry">
            <mxPoint x="680" y="285.5" as="sourcePoint" />
            <mxPoint x="720" y="245.5" as="targetPoint" />
          </mxGeometry>
        </mxCell>
        <mxCell id="E-AYg8Bf5Lori_xvNv5e-139" value="" style="endArrow=none;html=1;rounded=1;strokeColor=#fc5000;strokeWidth=2;endFill=0;edgeStyle=elbowEdgeStyle;exitX=1;exitY=0.5;exitDx=0;exitDy=0;entryX=0;entryY=0.5;entryDx=0;entryDy=0;" parent="WIyWlLk6GJQsqaUBKTNV-1" source="E-AYg8Bf5Lori_xvNv5e-29" target="E-AYg8Bf5Lori_xvNv5e-44" edge="1">
          <mxGeometry width="50" height="50" relative="1" as="geometry">
            <mxPoint x="680" y="310" as="sourcePoint" />
            <mxPoint x="720" y="366" as="targetPoint" />
          </mxGeometry>
        </mxCell>
        <mxCell id="E-AYg8Bf5Lori_xvNv5e-140" value="" style="endArrow=none;html=1;rounded=1;strokeColor=#d4d4e0;strokeWidth=2;endFill=0;edgeStyle=elbowEdgeStyle;exitX=1;exitY=0.5;exitDx=0;exitDy=0;entryX=0;entryY=0.5;entryDx=0;entryDy=0;" parent="WIyWlLk6GJQsqaUBKTNV-1" source="E-AYg8Bf5Lori_xvNv5e-36" target="E-AYg8Bf5Lori_xvNv5e-40" edge="1">
          <mxGeometry width="50" height="50" relative="1" as="geometry">
            <mxPoint x="680" y="280" as="sourcePoint" />
            <mxPoint x="720" y="240" as="targetPoint" />
          </mxGeometry>
        </mxCell>
        <mxCell id="E-AYg8Bf5Lori_xvNv5e-144" value="" style="endArrow=classic;html=1;rounded=1;strokeColor=#5C9C34;strokeWidth=2;endFill=1;edgeStyle=elbowEdgeStyle;entryX=0;entryY=0.5;entryDx=0;entryDy=0;" parent="WIyWlLk6GJQsqaUBKTNV-1" target="E-AYg8Bf5Lori_xvNv5e-115" edge="1">
          <mxGeometry width="50" height="50" relative="1" as="geometry">
            <mxPoint x="1800" y="665" as="sourcePoint" />
            <mxPoint x="1840" y="475" as="targetPoint" />
          </mxGeometry>
        </mxCell>
        <mxCell id="E-AYg8Bf5Lori_xvNv5e-145" value="" style="endArrow=classic;html=1;rounded=1;strokeColor=#fc5000;strokeWidth=2;endFill=1;edgeStyle=elbowEdgeStyle;entryX=0;entryY=0.5;entryDx=0;entryDy=0;" parent="WIyWlLk6GJQsqaUBKTNV-1" edge="1">
          <mxGeometry width="50" height="50" relative="1" as="geometry">
            <mxPoint x="1360" y="305" as="sourcePoint" />
            <mxPoint x="1400" y="505" as="targetPoint" />
          </mxGeometry>
        </mxCell>
        <mxCell id="E-AYg8Bf5Lori_xvNv5e-146" value="" style="endArrow=classic;html=1;rounded=1;strokeColor=#d4d4e0;strokeWidth=2;endFill=1;edgeStyle=elbowEdgeStyle;entryX=0;entryY=0.5;entryDx=0;entryDy=0;" parent="WIyWlLk6GJQsqaUBKTNV-1" target="E-AYg8Bf5Lori_xvNv5e-115" edge="1">
          <mxGeometry width="50" height="50" relative="1" as="geometry">
            <mxPoint x="1800" y="265" as="sourcePoint" />
            <mxPoint x="1840" y="495.5" as="targetPoint" />
          </mxGeometry>
        </mxCell>
        <mxCell id="E-AYg8Bf5Lori_xvNv5e-147" value="" style="endArrow=classic;html=1;rounded=1;strokeColor=#d8d8d8;strokeWidth=2;endFill=1;edgeStyle=elbowEdgeStyle;exitX=1;exitY=0.5;exitDx=0;exitDy=0;entryX=0;entryY=0.5;entryDx=0;entryDy=0;" parent="WIyWlLk6GJQsqaUBKTNV-1" source="E-AYg8Bf5Lori_xvNv5e-15" target="E-AYg8Bf5Lori_xvNv5e-29" edge="1">
          <mxGeometry width="50" height="50" relative="1" as="geometry">
            <mxPoint x="490" y="250.5" as="sourcePoint" />
            <mxPoint x="530" y="290.5" as="targetPoint" />
          </mxGeometry>
        </mxCell>
      </root>
    </mxGraphModel>
  </diagram>
</mxfile>
